<svg xmlns="http://www.w3.org/2000/svg" viewBox="0 0 100 100">
    <defs>
        <linearGradient id="wolfGradient" x1="0%" y1="0%" x2="100%" y2="100%">
            <stop offset="0%" stop-color="#f97316"/>
            <stop offset="100%" stop-color="#fbbf24"/>
        </linearGradient>
    </defs>
    <circle cx="50" cy="50" r="45" fill="url(#wolfGradient)"/>
    <path d="M35,40 Q50,20 65,40 Q65,55 50,65 Q35,55 35,40" fill="#0f172a"/>
    <circle cx="42" cy="45" r="5" fill="#ffffff"/>
    <circle cx="58" cy="45" r="5" fill="#ffffff"/>
    <circle cx="42" cy="45" r="2" fill="#0f172a"/>
    <circle cx="58" cy="45" r="2" fill="#0f172a"/>
    <path d="M50,55 Q50,60 45,58 Q42,57 45,52 Q48,50 50,55" fill="#f97316"/>
    <path d="M50,55 Q50,60 55,58 Q58,57 55,52 Q52,50 50,55" fill="#f97316"/>
    <path d="M30,35 Q25,30 20,35 Q25,40 30,35" fill="#f97316"/>
    <path d="M70,35 Q75,30 80,35 Q75,40 70,35" fill="#f97316"/>
</svg>